<mxfile host="app.diagrams.net" modified="2021-05-20T10:16:47.771Z" agent="5.0 (Windows NT 10.0; Win64; x64) AppleWebKit/537.36 (KHTML, like Gecko) Chrome/90.0.4430.212 Safari/537.36" etag="e8568Uzqc9rezht4qC27" version="14.6.13" type="github">
  <diagram id="WbWyUEPBsjGot21H0MOr" name="Page-1">
    <mxGraphModel dx="2346" dy="866" grid="1" gridSize="10" guides="1" tooltips="1" connect="1" arrows="1" fold="1" page="1" pageScale="1" pageWidth="827" pageHeight="1169" math="0" shadow="0">
      <root>
        <mxCell id="0" />
        <mxCell id="1" parent="0" />
        <mxCell id="3mWR9NiWA6pW0JQRPycS-3" style="edgeStyle=orthogonalEdgeStyle;rounded=0;orthogonalLoop=1;jettySize=auto;html=1;entryX=0.5;entryY=0;entryDx=0;entryDy=0;" parent="1" source="3mWR9NiWA6pW0JQRPycS-1" target="3mWR9NiWA6pW0JQRPycS-2" edge="1">
          <mxGeometry relative="1" as="geometry" />
        </mxCell>
        <mxCell id="3mWR9NiWA6pW0JQRPycS-1" value="ARDUINO" style="ellipse;whiteSpace=wrap;html=1;" parent="1" vertex="1">
          <mxGeometry x="370" y="110" width="120" height="80" as="geometry" />
        </mxCell>
        <mxCell id="3mWR9NiWA6pW0JQRPycS-5" value="PRESSIONADO" style="edgeStyle=orthogonalEdgeStyle;rounded=0;orthogonalLoop=1;jettySize=auto;html=1;entryX=0.5;entryY=0;entryDx=0;entryDy=0;" parent="1" source="3mWR9NiWA6pW0JQRPycS-2" target="3mWR9NiWA6pW0JQRPycS-4" edge="1">
          <mxGeometry relative="1" as="geometry" />
        </mxCell>
        <mxCell id="3mWR9NiWA6pW0JQRPycS-2" value="LÃŠ BOTAO" style="rounded=0;whiteSpace=wrap;html=1;" parent="1" vertex="1">
          <mxGeometry x="360" y="310" width="120" height="60" as="geometry" />
        </mxCell>
        <mxCell id="3mWR9NiWA6pW0JQRPycS-7" value="NAO PRESSIONADO" style="edgeStyle=orthogonalEdgeStyle;rounded=0;orthogonalLoop=1;jettySize=auto;html=1;entryX=1;entryY=0.5;entryDx=0;entryDy=0;" parent="1" source="3mWR9NiWA6pW0JQRPycS-4" target="3mWR9NiWA6pW0JQRPycS-2" edge="1">
          <mxGeometry relative="1" as="geometry">
            <Array as="points">
              <mxPoint x="560" y="510" />
              <mxPoint x="560" y="340" />
            </Array>
          </mxGeometry>
        </mxCell>
        <mxCell id="3mWR9NiWA6pW0JQRPycS-4" value="LIGARA LUZ" style="rounded=0;whiteSpace=wrap;html=1;" parent="1" vertex="1">
          <mxGeometry x="360" y="490" width="120" height="60" as="geometry" />
        </mxCell>
      </root>
    </mxGraphModel>
  </diagram>
</mxfile>
